
<svg width="148px" height="55px" viewBox="0 0 148 55" version="1.1" xmlns="http://www.w3.org/2000/svg" xmlns:xlink="http://www.w3.org/1999/xlink">
    <!-- Generator: Sketch 50.2 (55047) - http://www.bohemiancoding.com/sketch -->
    <desc>Created with Sketch.</desc>
    <defs>
        <polygon id="path-1" points="0 0.8475 27.6479 0.8475 27.6479 33.5335 0 33.5335"></polygon>
        <polygon id="path-3" points="0.3439 0.4701 5.5069 0.4701 5.5069 9 0.3439 9"></polygon>
        <path d="M7.834,11.747 L0.931,0.06 L7.834,11.747 Z" id="path-5"></path>
        <path d="M3.083,5.381 L0.125,0.373 L3.083,5.381 Z" id="path-7"></path>
        <path d="M8.727,14.27 L0.517,0.369 L8.727,14.27 Z" id="path-9"></path>
        <path d="M8.486,14.046 L0.495,0.516 L8.486,14.046 Z" id="path-11"></path>
        <path d="M7.238,10.711 L0.99,0.131 L7.238,10.711 Z" id="path-13"></path>
        <path d="M0.017,19.858 L11.117,0.278 L0.017,19.858 Z" id="path-15"></path>
        <path d="M0.035,20.586 L11.615,0.159 L0.035,20.586 Z" id="path-17"></path>
        <path d="M0.381,12.552 L7.06,0.769 L0.381,12.552 Z" id="path-19"></path>
        <path d="M0.863,0.87 L4.587,0.87 L0.863,0.87 Z" id="path-21"></path>
        <path d="M0.15,0.897 L18.069,0.897 L0.15,0.897 Z" id="path-23"></path>
        <path d="M0.799,0.501 L21.584,0.501 L0.799,0.501 Z" id="path-25"></path>
        <path d="M0.579,0.677 L18.415,0.677 L0.579,0.677 Z" id="path-27"></path>
        <path d="M9.398,3.442 C3.106,7.362 -0.682,14.035 0.934,18.346 C2.549,22.658 8.959,22.977 15.248,19.058 C21.54,15.138 25.327,8.466 23.709,4.154 C22.851,1.864 20.64,0.7 17.813,0.701 C15.319,0.701 12.345,1.606 9.398,3.442" id="path-29"></path>
        <path d="M9.398,3.442 C3.106,7.362 -0.682,14.035 0.934,18.346 C2.549,22.658 8.959,22.977 15.248,19.058 C21.54,15.138 25.327,8.466 23.709,4.154 C22.851,1.864 20.64,0.7 17.813,0.701 C15.319,0.701 12.345,1.606 9.398,3.442" id="path-31"></path>
        <path d="M9.398,3.442 C3.106,7.362 -0.682,14.035 0.934,18.346 C2.549,22.658 8.959,22.977 15.248,19.058 C21.54,15.138 25.327,8.466 23.709,4.154 C22.851,1.864 20.64,0.7 17.813,0.701 C15.319,0.701 12.345,1.606 9.398,3.442" id="path-33"></path>
        <path d="M9.398,3.442 C3.106,7.362 -0.682,14.035 0.934,18.346 C2.549,22.658 8.959,22.977 15.248,19.058 C21.54,15.138 25.327,8.466 23.709,4.154 C22.851,1.864 20.64,0.7 17.813,0.701 C15.319,0.701 12.345,1.606 9.398,3.442" id="path-35"></path>
        <path d="M9.398,3.442 C3.106,7.362 -0.682,14.035 0.934,18.346 C2.549,22.658 8.959,22.977 15.248,19.058 C21.54,15.138 25.327,8.466 23.709,4.154 C22.851,1.864 20.64,0.7 17.813,0.701 C15.319,0.701 12.345,1.606 9.398,3.442" id="path-37"></path>
        <path d="M9.398,3.442 C3.106,7.362 -0.682,14.035 0.934,18.346 C2.549,22.658 8.959,22.977 15.248,19.058 C21.54,15.138 25.327,8.466 23.709,4.154 C22.851,1.864 20.64,0.7 17.813,0.701 C15.319,0.701 12.345,1.606 9.398,3.442" id="path-39"></path>
        <path d="M9.398,3.442 C3.106,7.362 -0.682,14.035 0.934,18.346 C2.549,22.658 8.959,22.977 15.248,19.058 C21.54,15.138 25.327,8.466 23.709,4.154 C22.851,1.864 20.64,0.7 17.813,0.701 C15.319,0.701 12.345,1.606 9.398,3.442" id="path-41"></path>
        <path d="M9.398,3.442 C3.106,7.362 -0.682,14.035 0.934,18.346 C2.549,22.658 8.959,22.977 15.248,19.058 C21.54,15.138 25.327,8.466 23.709,4.154 C22.851,1.864 20.64,0.7 17.813,0.701 C15.319,0.701 12.345,1.606 9.398,3.442" id="path-43"></path>
        <path d="M9.398,3.442 C3.106,7.362 -0.682,14.035 0.934,18.346 C2.549,22.658 8.959,22.977 15.248,19.058 C21.54,15.138 25.327,8.466 23.709,4.154 C22.851,1.864 20.64,0.7 17.813,0.701 C15.319,0.701 12.345,1.606 9.398,3.442" id="path-45"></path>
        <path d="M9.398,3.442 C3.106,7.362 -0.682,14.035 0.934,18.346 C2.549,22.658 8.959,22.977 15.248,19.058 C21.54,15.138 25.327,8.466 23.709,4.154 C22.851,1.864 20.64,0.7 17.813,0.701 C15.319,0.701 12.345,1.606 9.398,3.442" id="path-47"></path>
        <path d="M9.398,3.442 C3.106,7.362 -0.682,14.035 0.934,18.346 C2.549,22.658 8.959,22.977 15.248,19.058 C21.54,15.138 25.327,8.466 23.709,4.154 C22.851,1.864 20.64,0.7 17.813,0.701 C15.319,0.701 12.345,1.606 9.398,3.442" id="path-49"></path>
        <path d="M9.398,3.442 C3.106,7.362 -0.682,14.035 0.934,18.346 C2.549,22.658 8.959,22.977 15.248,19.058 C21.54,15.138 25.327,8.466 23.709,4.154 C22.851,1.864 20.64,0.7 17.813,0.701 C15.319,0.701 12.345,1.606 9.398,3.442" id="path-51"></path>
    </defs>
    <g id="Welcome" stroke="none" stroke-width="1" fill="none" fill-rule="evenodd">
        <g id="Desktop-HD" transform="translate(-245.000000, -24.000000)">
            <g id="header" transform="translate(245.000000, 23.000000)">
                <g id="logo">
                    <g id="Group-39" transform="translate(0.000000, 0.384000)">
                        <path d="M71.7559,31.9492 C78.3209,26.6012 81.9489,19.1182 79.8569,15.2362 C79.7499,15.0402 79.6239,14.8662 79.4939,14.6952 C79.5679,14.8462 79.6489,14.9922 79.7089,15.1542 C81.0329,18.6822 78.7349,23.7892 74.4099,27.6772 C73.4489,28.5412 72.3919,29.3462 71.2479,30.0582 C64.9589,33.9762 58.5489,33.6582 56.9339,29.3462 C56.7369,28.8222 56.6239,28.2612 56.5819,27.6772 C56.5779,27.6202 56.5779,27.5622 56.5759,27.5052 C55.3839,30.2612 55.1219,32.8162 56.0859,34.6032 C58.1769,38.4862 65.1919,37.2982 71.7559,31.9492" id="Fill-1" fill="#FEFEFE"></path>
                        <g id="Group-5" transform="translate(0.000000, 2.000000)">
                            <mask id="mask-2" fill="white">
                                <use xlink:href="#path-1"></use>
                            </mask>
                            <g id="Clip-4"></g>
                            <path d="M27.6479,23.9755 L26.9519,33.5335 L-0.0001,33.3135 L0.0139,31.6885 C0.4719,31.6625 1.0819,31.6075 1.8459,31.5195 C2.6089,31.4195 3.1049,31.3175 3.3349,31.2125 C3.8249,30.9885 4.1629,30.6935 4.3489,30.3295 C4.5499,29.9635 4.6519,29.4995 4.6579,28.9345 L4.8499,5.5995 C4.8539,5.0945 4.7719,4.6525 4.6089,4.2695 C4.4439,3.8715 4.0949,3.5495 3.5639,3.3005 C3.1539,3.0995 2.5989,2.9185 1.8979,2.7605 C1.2129,2.6025 0.6649,2.5065 0.2529,2.4725 L0.2669,0.8475 L25.3879,1.0545 L25.3219,8.8785 L23.6069,8.8645 C23.3109,7.7025 22.6579,6.4695 21.6459,5.1635 C20.6509,3.8455 19.6959,3.1215 18.7819,2.9915 C18.3089,2.9245 17.7459,2.8755 17.0889,2.8385 C16.4339,2.8035 15.6869,2.7835 14.8479,2.7755 L9.7459,2.7335 L9.6409,15.6375 L13.2999,15.6665 C14.4749,15.6755 15.3299,15.5775 15.8669,15.3675 C16.4179,15.1425 16.8999,14.7745 17.3149,14.2575 C17.6559,13.8205 17.9409,13.2345 18.1769,12.5035 C18.4259,11.7585 18.5939,11.0585 18.6759,10.4035 L20.3899,10.4165 L20.2879,23.1145 L18.5719,23.1005 C18.5149,22.3675 18.3539,21.5965 18.0859,20.7855 C17.8339,19.9595 17.5649,19.3635 17.2789,18.9945 C16.8099,18.3965 16.2709,18.0015 15.6629,17.8135 C15.0689,17.6265 14.2779,17.5285 13.2869,17.5195 L9.6249,17.4905 L9.5449,27.2365 C9.5379,28.2135 9.5999,28.9835 9.7339,29.5485 C9.8649,30.1165 10.1279,30.5435 10.5229,30.8345 C10.9169,31.1295 11.4559,31.3245 12.1419,31.4215 C12.8289,31.5035 13.8039,31.5485 15.0699,31.5595 C15.5729,31.5655 16.2369,31.5695 17.0589,31.5765 C17.8849,31.5825 18.5779,31.5595 19.1429,31.5025 C19.7239,31.4465 20.3169,31.3435 20.9299,31.1955 C21.5559,31.0345 21.9999,30.8165 22.2629,30.5435 C22.9699,29.8185 23.7119,28.7165 24.4849,27.2445 C25.2759,25.7555 25.7799,24.6625 25.9999,23.9615 L27.6479,23.9755" id="Fill-3" fill="#FEFEFE" mask="url(#mask-2)"></path>
                        </g>
                        <path d="M53.7388,14.8398 C53.0518,14.9558 52.3948,15.2028 51.7668,15.5778 C51.1518,15.9398 50.6218,16.5918 50.1728,17.5328 C49.2538,19.5698 48.3068,21.6978 47.3298,23.9168 C46.3478,26.1208 45.3318,28.4388 44.2728,30.8688 C43.9618,31.5688 43.6258,32.3978 43.2688,33.3558 C42.9258,34.3138 42.6058,35.2338 42.3088,36.1158 L40.5248,36.1028 C39.1048,32.5048 37.7968,29.2308 36.5998,26.2768 C35.4048,23.3088 34.1628,20.2688 32.8768,17.1618 C32.5778,16.4578 32.0848,15.9128 31.4028,15.5268 C30.7358,15.1248 30.0588,14.8658 29.3738,14.7538 L29.3848,13.2438 L39.8168,13.3298 L39.8058,14.9318 C39.3478,14.9438 38.7738,15.0378 38.0868,15.2148 C37.3998,15.3768 37.0528,15.6108 37.0508,15.9148 C37.0508,15.9608 37.0868,16.0838 37.1618,16.2818 C37.2368,16.4658 37.3118,16.6808 37.3868,16.9258 C37.9988,18.4858 38.8648,20.6668 39.9868,23.4668 C41.1068,26.2678 42.0188,28.5248 42.7218,30.2378 C43.2818,28.9328 43.9828,27.3058 44.8218,25.3608 C45.6758,23.4148 46.5948,21.2408 47.5768,18.8378 C47.7308,18.4288 47.8778,18.0488 48.0188,17.6978 C48.1588,17.3338 48.2318,16.9678 48.2338,16.6018 C48.2358,16.3428 48.1068,16.1128 47.8508,15.9128 C47.6078,15.6968 47.3108,15.5108 46.9638,15.3568 C46.6128,15.2008 46.2708,15.0838 45.9368,15.0038 C45.6018,14.9268 45.3268,14.8698 45.1138,14.8378 L45.1248,13.3728 L53.7508,13.4438 L53.7388,14.8398" id="Fill-6" fill="#FEFEFE"></path>
                        <path d="M95.3076,36.0615 L84.3036,35.9715 L84.3166,34.4625 C84.6676,34.4345 85.0416,34.4065 85.4386,34.3785 C85.8346,34.3365 86.1636,34.2795 86.4236,34.2045 C86.8506,34.0705 87.1746,33.8365 87.3896,33.5035 C87.6066,33.1545 87.7156,32.7065 87.7216,32.1565 L87.9366,6.0295 C87.9416,5.4785 87.8246,4.9675 87.5836,4.4935 C87.3576,4.0025 87.0536,3.6195 86.6756,3.3405 C86.4046,3.1555 85.9036,2.9855 85.1696,2.8255 C84.4416,2.6675 83.8526,2.5715 83.4116,2.5375 L83.4216,1.0725 L91.9146,0.6165 L92.2346,0.9615 L91.9806,31.9165 C91.9746,32.4495 92.0706,32.8935 92.2646,33.2455 C92.4616,33.5825 92.7816,33.8435 93.2196,34.0315 C93.5556,34.1885 93.8816,34.3035 94.2026,34.3835 C94.5366,34.4615 94.9106,34.5175 95.3226,34.5525 L95.3076,36.0615" id="Fill-8" fill="#FEFEFE"></path>
                        <path d="M123.1904,15.2236 C122.5034,15.3406 121.8454,15.5866 121.2164,15.9626 C120.6064,16.3236 120.0734,16.9756 119.6244,17.9166 C118.7064,19.9526 117.7574,22.0826 116.7824,24.2996 C115.8004,26.5036 114.7844,28.8226 113.7244,31.2526 C113.4134,31.9526 113.0814,32.7806 112.7184,33.7386 C112.3774,34.6976 112.0564,35.6186 111.7594,36.4996 L109.9754,36.4856 C108.5554,32.8876 107.2494,29.6146 106.0504,26.6606 C104.8574,23.6926 103.6144,20.6546 102.3284,17.5466 C102.0294,16.8426 101.5374,16.2966 100.8574,15.9096 C100.1884,15.5076 99.5084,15.2516 98.8264,15.1386 L98.8384,13.6286 L109.2684,13.7136 L109.2564,15.3156 C108.7984,15.3276 108.2254,15.4206 107.5394,15.5986 C106.8504,15.7596 106.5044,15.9946 106.5024,16.2996 C106.5024,16.3446 106.5394,16.4686 106.6144,16.6656 C106.6894,16.8496 106.7624,17.0646 106.8374,17.3086 C107.4514,18.8696 108.3164,21.0496 109.4394,23.8506 C110.5584,26.6516 111.4724,28.9106 112.1754,30.6226 C112.7334,29.3156 113.4334,27.6886 114.2724,25.7436 C115.1284,23.7986 116.0444,21.6246 117.0284,19.2226 C117.1834,18.8106 117.3294,18.4316 117.4724,18.0826 C117.6104,17.7176 117.6834,17.3516 117.6854,16.9856 C117.6884,16.7266 117.5604,16.4966 117.3024,16.2966 C117.0584,16.0806 116.7634,15.8936 116.4174,15.7396 C116.0674,15.5836 115.7224,15.4676 115.3884,15.3876 C115.0524,15.3086 114.7784,15.2536 114.5654,15.2216 L114.5794,13.7566 L123.2024,13.8276 L123.1904,15.2236" id="Fill-10" fill="#FEFEFE"></path>
                        <path d="M142.3457,22.5156 C142.3567,21.6616 142.2857,20.7456 142.1407,19.7676 C142.0097,18.7916 141.7917,17.9746 141.4747,17.3146 C141.1307,16.6106 140.6557,16.0346 140.0467,15.5876 C139.4427,15.1406 138.6577,14.9116 137.6967,14.9056 C136.0937,14.8916 134.7537,15.5526 133.6757,16.8846 C132.6147,18.2036 132.0287,20.0506 131.9167,22.4296 L142.3457,22.5156 Z M147.3327,31.1586 C146.3737,32.9516 145.0937,34.3736 143.4987,35.4296 C141.9057,36.4846 140.0787,37.0016 138.0177,36.9856 C136.2037,36.9706 134.6127,36.6386 133.2447,35.9866 C131.8907,35.3336 130.7807,34.4556 129.9037,33.3496 C129.0287,32.2446 128.3737,30.9566 127.9447,29.4906 C127.5287,28.0226 127.3287,26.4726 127.3397,24.8396 C127.3537,23.3756 127.5937,21.9456 128.0637,20.5446 C128.5467,19.1306 129.2427,17.8636 130.1557,16.7426 C131.0327,15.6656 132.1167,14.8066 133.4017,14.1596 C134.7017,13.4986 136.1537,13.1746 137.7557,13.1896 C139.4037,13.2026 140.8107,13.4736 141.9837,13.9996 C143.1517,14.5306 144.0977,15.2466 144.8247,16.1536 C145.5177,17.0126 146.0287,18.0246 146.3537,19.1846 C146.6987,20.3466 146.8607,21.6066 146.8517,22.9646 L146.8377,24.4756 L131.8977,24.3516 C131.8867,25.8316 132.0137,27.1756 132.2767,28.3826 C132.5567,29.5886 132.9997,30.6526 133.5997,31.5726 C134.1907,32.4616 134.9607,33.1706 135.9177,33.6966 C136.8747,34.2076 138.0157,34.4696 139.3437,34.4816 C140.6997,34.4916 141.8697,34.1886 142.8517,33.5726 C143.8477,32.9386 144.8107,31.8026 145.7417,30.1626 L147.3327,31.1586 Z" id="Fill-12" fill="#FEFEFE"></path>
                        <path d="M62.9658,50.6689 L63.9108,50.5179 C63.9608,50.9249 64.1038,51.2369 64.3438,51.4569 C64.5868,51.6759 64.9248,51.7859 65.3598,51.7909 C65.7998,51.7939 66.1268,51.7019 66.3388,51.5119 C66.5528,51.3199 66.6618,51.0959 66.6638,50.8369 C66.6658,50.6039 66.5728,50.4209 66.3868,50.2859 C66.2558,50.1939 65.9318,50.0749 65.4148,49.9319 C64.7138,49.7349 64.2288,49.5659 63.9568,49.4279 C63.6888,49.2839 63.4848,49.0909 63.3468,48.8449 C63.2098,48.5979 63.1428,48.3259 63.1448,48.0299 C63.1468,47.7579 63.2058,47.5099 63.3218,47.2819 C63.4388,47.0519 63.6008,46.8599 63.7998,46.7099 C63.9498,46.5929 64.1508,46.4949 64.4078,46.4179 C64.6658,46.3359 64.9428,46.2969 65.2348,46.2989 C65.6768,46.3039 66.0648,46.3749 66.3958,46.5129 C66.7318,46.6529 66.9768,46.8419 67.1348,47.0799 C67.2918,47.3139 67.3978,47.6249 67.4578,48.0179 L66.5208,48.1469 C66.4798,47.8349 66.3578,47.5919 66.1558,47.4129 C65.9558,47.2369 65.6688,47.1469 65.2958,47.1449 C64.8588,47.1399 64.5458,47.2169 64.3548,47.3699 C64.1688,47.5249 64.0718,47.7069 64.0698,47.9159 C64.0698,48.0499 64.1058,48.1699 64.1858,48.2769 C64.2598,48.3869 64.3828,48.4809 64.5478,48.5539 C64.6438,48.5929 64.9248,48.6819 65.3898,48.8229 C66.0648,49.0229 66.5348,49.1869 66.7968,49.3149 C67.0648,49.4359 67.2738,49.6179 67.4258,49.8559 C67.5748,50.0919 67.6478,50.3869 67.6458,50.7359 C67.6438,51.0799 67.5478,51.4009 67.3568,51.7039 C67.1718,52.0039 66.9018,52.2349 66.5498,52.3989 C66.1988,52.5609 65.8018,52.6389 65.3578,52.6349 C64.6268,52.6299 64.0668,52.4609 63.6848,52.1309 C63.3058,51.8009 63.0648,51.3139 62.9658,50.6689" id="Fill-14" fill="#FEFEFE"></path>
                        <g id="Group-18" transform="translate(69.000000, 46.000000)">
                            <mask id="mask-4" fill="white">
                                <use xlink:href="#path-3"></use>
                            </mask>
                            <g id="Clip-17"></g>
                            <path d="M0.7749,8.8681 L0.6749,7.9021 C0.8839,7.9651 1.0669,7.9971 1.2209,7.9981 C1.4349,8.0001 1.6039,7.9641 1.7309,7.8891 C1.8609,7.8141 1.9649,7.7091 2.0489,7.5711 C2.1099,7.4701 2.2079,7.2161 2.3459,6.8091 C2.3639,6.7521 2.3939,6.6691 2.4319,6.5601 L0.3439,0.4701 L1.3729,0.4761 L2.5189,3.9981 C2.6649,4.4451 2.7989,4.9141 2.9149,5.4051 C3.0279,4.9331 3.1619,4.4741 3.3189,4.0261 L4.5519,0.5041 L5.5069,0.5111 L3.3139,6.6581 C3.0789,7.3211 2.8949,7.7781 2.7659,8.0281 C2.5929,8.3651 2.3979,8.6111 2.1759,8.7651 C1.9559,8.9241 1.6929,9.0021 1.3889,9.0001 C1.2059,8.9981 0.9989,8.9541 0.7749,8.8681" id="Fill-16" fill="#FEFEFE" mask="url(#mask-4)"></path>
                        </g>
                        <path d="M75.9717,50.7773 L76.9177,50.6253 C76.9657,51.0313 77.1137,51.3433 77.3497,51.5633 C77.5927,51.7823 77.9327,51.8923 78.3677,51.8973 C78.8057,51.9003 79.1317,51.8073 79.3447,51.6193 C79.5577,51.4263 79.6677,51.2023 79.6687,50.9433 C79.6707,50.7113 79.5797,50.5283 79.3927,50.3923 C79.2607,50.3003 78.9367,50.1813 78.4197,50.0373 C77.7197,49.8403 77.2347,49.6733 76.9637,49.5353 C76.6957,49.3903 76.4917,49.1983 76.3527,48.9523 C76.2157,48.7053 76.1517,48.4313 76.1537,48.1353 C76.1567,47.8673 76.2137,47.6163 76.3297,47.3883 C76.4487,47.1583 76.6077,46.9663 76.8057,46.8153 C76.9557,46.7003 77.1587,46.6013 77.4117,46.5243 C77.6717,46.4423 77.9497,46.4033 78.2427,46.4053 C78.6827,46.4103 79.0727,46.4813 79.4027,46.6213 C79.7387,46.7603 79.9837,46.9483 80.1417,47.1853 C80.2977,47.4193 80.4047,47.7313 80.4627,48.1243 L79.5277,48.2533 C79.4887,47.9413 79.3667,47.6983 79.1617,47.5193 C78.9617,47.3433 78.6737,47.2543 78.3037,47.2513 C77.8657,47.2473 77.5517,47.3243 77.3617,47.4763 C77.1727,47.6313 77.0777,47.8143 77.0777,48.0223 C77.0757,48.1563 77.1157,48.2773 77.1917,48.3823 C77.2657,48.4943 77.3877,48.5863 77.5537,48.6603 C77.6507,48.6983 77.9307,48.7903 78.3967,48.9283 C79.0727,49.1293 79.5397,49.2923 79.8037,49.4213 C80.0727,49.5443 80.2837,49.7243 80.4307,49.9623 C80.5807,50.2003 80.6567,50.4933 80.6527,50.8423 C80.6507,51.1843 80.5537,51.5073 80.3647,51.8103 C80.1767,52.1103 79.9087,52.3413 79.5557,52.5063 C79.2047,52.6673 78.8077,52.7443 78.3647,52.7403 C77.6337,52.7353 77.0757,52.5673 76.6937,52.2383 C76.3117,51.9073 76.0747,51.4203 75.9717,50.7773" id="Fill-19" fill="#FEFEFE"></path>
                        <path d="M84.9346,51.7392 L85.0666,52.6482 C84.7956,52.7082 84.5556,52.7352 84.3426,52.7332 C83.9966,52.7312 83.7276,52.6692 83.5386,52.5492 C83.3466,52.4292 83.2136,52.2752 83.1386,52.0842 C83.0616,51.8892 83.0286,51.4832 83.0336,50.8682 L83.0616,47.3812 L82.3596,47.3752 L82.3666,46.5752 L83.0666,46.5812 L83.0806,45.0812 L84.0356,44.4722 L84.0166,46.5902 L84.9776,46.5982 L84.9706,47.3962 L84.0086,47.3882 L83.9826,50.9322 C83.9776,51.2252 83.9946,51.4142 84.0256,51.4982 C84.0596,51.5832 84.1126,51.6482 84.1866,51.6992 C84.2646,51.7502 84.3736,51.7742 84.5146,51.7752 C84.6226,51.7772 84.7626,51.7642 84.9346,51.7392" id="Fill-21" fill="#FEFEFE"></path>
                        <path d="M87.6807,49.0693 L90.8297,49.0933 C90.7907,48.5843 90.6727,48.2003 90.4777,47.9443 C90.1747,47.5463 89.7847,47.3433 89.2967,47.3403 C88.8607,47.3363 88.4887,47.4913 88.1857,47.8053 C87.8837,48.1183 87.7157,48.5403 87.6807,49.0693 M90.8047,50.7543 L91.7907,50.8933 C91.6297,51.5113 91.3367,51.9913 90.9137,52.3313 C90.4907,52.6693 89.9517,52.8373 89.2937,52.8313 C88.4717,52.8233 87.8197,52.5473 87.3377,51.9993 C86.8637,51.4473 86.6277,50.6793 86.6347,49.6933 C86.6437,48.6733 86.8967,47.8833 87.3877,47.3253 C87.8817,46.7653 88.5167,46.4903 89.2937,46.4963 C90.0477,46.5033 90.6617,46.7833 91.1357,47.3393 C91.6087,47.8963 91.8407,48.6733 91.8317,49.6733 C91.8317,49.7343 91.8297,49.8263 91.8267,49.9473 L87.6217,49.9133 C87.6547,50.5803 87.8227,51.0903 88.1337,51.4463 C88.4477,51.8013 88.8367,51.9833 89.3077,51.9863 C89.6587,51.9903 89.9557,51.8923 90.2087,51.6973 C90.4557,51.5023 90.6567,51.1883 90.8047,50.7543" id="Fill-23" fill="#FEFEFE"></path>
                        <path d="M94.043,52.7324 L94.093,46.6724 L94.948,46.6784 L94.941,47.5304 C95.121,47.2354 95.359,47.0004 95.653,46.8224 C95.948,46.6424 96.283,46.5534 96.658,46.5574 C97.075,46.5594 97.415,46.6574 97.68,46.8434 C97.948,47.0334 98.133,47.2954 98.242,47.6304 C98.693,46.9254 99.277,46.5784 99.991,46.5834 C100.548,46.5884 100.977,46.7584 101.277,47.0964 C101.574,47.4294 101.72,47.9444 101.716,48.6354 L101.682,52.7944 L100.73,52.7874 L100.761,48.9704 C100.766,48.5594 100.736,48.2634 100.673,48.0854 C100.617,47.9004 100.505,47.7534 100.341,47.6424 C100.181,47.5314 99.991,47.4734 99.772,47.4724 C99.374,47.4684 99.044,47.6094 98.78,47.8924 C98.517,48.1714 98.382,48.6244 98.377,49.2484 L98.349,52.7674 L97.392,52.7594 L97.423,48.8234 C97.428,48.3654 97.353,48.0224 97.199,47.7934 C97.044,47.5644 96.79,47.4484 96.437,47.4454 C96.169,47.4424 95.918,47.5174 95.687,47.6674 C95.46,47.8174 95.294,48.0384 95.189,48.3304 C95.084,48.6234 95.029,49.0444 95.025,49.5964 L94.998,52.7404 L94.043,52.7324" id="Fill-25" fill="#FEFEFE"></path>
                        <path d="M103.7998,51.0049 L104.7458,50.8519 C104.7948,51.2599 104.9388,51.5719 105.1778,51.7919 C105.4188,52.0119 105.7588,52.1229 106.1958,52.1249 C106.6318,52.1289 106.9578,52.0369 107.1728,51.8489 C107.3858,51.6549 107.4958,51.4299 107.4978,51.1719 C107.4998,50.9409 107.4078,50.7559 107.2208,50.6209 C107.0888,50.5279 106.7648,50.4099 106.2468,50.2659 C105.5478,50.0679 105.0638,49.9009 104.7908,49.7639 C104.5258,49.6179 104.3198,49.4259 104.1808,49.1809 C104.0438,48.9329 103.9758,48.6599 103.9828,48.3629 C103.9828,48.0939 104.0408,47.8439 104.1558,47.6169 C104.2738,47.3849 104.4328,47.1939 104.6318,47.0449 C104.7818,46.9269 104.9868,46.8289 105.2398,46.7539 C105.4998,46.6719 105.7778,46.6319 106.0708,46.6339 C106.5108,46.6379 106.9008,46.7079 107.2308,46.8489 C107.5648,46.9889 107.8108,47.1779 107.9668,47.4139 C108.1258,47.6469 108.2328,47.9599 108.2888,48.3529 L107.3558,48.4819 C107.3148,48.1699 107.1928,47.9259 106.9898,47.7479 C106.7888,47.5719 106.5018,47.4819 106.1298,47.4789 C105.6938,47.4749 105.3778,47.5509 105.1908,47.7029 C105.0008,47.8589 104.9058,48.0409 104.9038,48.2499 C104.9038,48.3839 104.9418,48.5039 105.0168,48.6109 C105.0948,48.7229 105.2138,48.8139 105.3818,48.8889 C105.4758,48.9269 105.7588,49.0169 106.2238,49.1579 C106.8978,49.3569 107.3668,49.5199 107.6318,49.6499 C107.9008,49.7719 108.1088,49.9529 108.2568,50.1899 C108.4098,50.4279 108.4828,50.7209 108.4808,51.0689 C108.4778,51.4139 108.3798,51.7369 108.1928,52.0399 C108.0028,52.3369 107.7368,52.5689 107.3838,52.7339 C107.0308,52.8939 106.6338,52.9719 106.1928,52.9689 C105.4588,52.9639 104.9028,52.7949 104.5188,52.4659 C104.1398,52.1349 103.9008,51.6479 103.7998,51.0049" id="Fill-27" fill="#FEFEFE"></path>
                        <path d="M26.4512,50.4062 L27.3962,50.2532 C27.4462,50.6612 27.5892,50.9742 27.8302,51.1932 C28.0722,51.4112 28.4102,51.5232 28.8452,51.5262 C29.2852,51.5302 29.6092,51.4362 29.8252,51.2492 C30.0382,51.0562 30.1472,50.8312 30.1492,50.5732 C30.1492,50.3412 30.0592,50.1572 29.8732,50.0222 C29.7412,49.9292 29.4172,49.8102 28.8982,49.6672 C28.1992,49.4702 27.7142,49.3022 27.4422,49.1632 C27.1742,49.0212 26.9702,48.8272 26.8322,48.5822 C26.6962,48.3342 26.6282,48.0612 26.6302,47.7642 C26.6322,47.4952 26.6912,47.2452 26.8072,47.0172 C26.9252,46.7872 27.0832,46.5952 27.2852,46.4462 C27.4332,46.3292 27.6372,46.2322 27.8912,46.1532 C28.1512,46.0722 28.4262,46.0322 28.7212,46.0352 C29.1632,46.0392 29.5502,46.1102 29.8812,46.2502 C30.2172,46.3892 30.4622,46.5782 30.6192,46.8152 C30.7772,47.0502 30.8842,47.3622 30.9402,47.7542 L30.0062,47.8832 C29.9652,47.5712 29.8432,47.3272 29.6412,47.1492 C29.4402,46.9732 29.1542,46.8832 28.7822,46.8792 C28.3442,46.8762 28.0292,46.9522 27.8412,47.1062 C27.6532,47.2602 27.5582,47.4422 27.5552,47.6512 C27.5552,47.7852 27.5912,47.9052 27.6712,48.0122 C27.7462,48.1232 27.8682,48.2162 28.0342,48.2882 C28.1292,48.3282 28.4082,48.4182 28.8752,48.5592 C29.5502,48.7592 30.0182,48.9222 30.2832,49.0512 C30.5502,49.1742 30.7592,49.3552 30.9092,49.5912 C31.0612,49.8292 31.1332,50.1222 31.1312,50.4712 C31.1282,50.8142 31.0312,51.1372 30.8412,51.4402 C30.6552,51.7392 30.3872,51.9702 30.0332,52.1352 C29.6822,52.2962 29.2852,52.3732 28.8432,52.3712 C28.1112,52.3652 27.5532,52.1962 27.1702,51.8662 C26.7912,51.5372 26.5512,51.0492 26.4512,50.4062" id="Fill-29" fill="#FEFEFE"></path>
                        <path d="M36.9438,49.2578 C36.5948,49.4068 36.0738,49.5328 35.3798,49.6348 C34.9878,49.6918 34.7088,49.7578 34.5448,49.8328 C34.3818,49.9068 34.2548,50.0178 34.1648,50.1658 C34.0758,50.3098 34.0308,50.4718 34.0288,50.6508 C34.0258,50.9248 34.1218,51.1528 34.3098,51.3368 C34.5048,51.5198 34.7858,51.6148 35.1578,51.6178 C35.5248,51.6218 35.8518,51.5378 36.1418,51.3698 C36.4298,51.1958 36.6408,50.9608 36.7788,50.6608 C36.8828,50.4298 36.9378,50.0868 36.9398,49.6358 L36.9438,49.2578 Z M37.0028,51.5538 C36.6468,51.8738 36.3048,52.0988 35.9738,52.2278 C35.6468,52.3618 35.2978,52.4228 34.9218,52.4208 C34.3028,52.4148 33.8288,52.2508 33.4978,51.9248 C33.1688,51.5948 33.0058,51.1758 33.0108,50.6708 C33.0128,50.3728 33.0758,50.1038 33.2028,49.8618 C33.3328,49.6148 33.4978,49.4188 33.6998,49.2718 C33.9058,49.1248 34.1378,49.0158 34.3938,48.9408 C34.5818,48.8898 34.8648,48.8398 35.2438,48.7938 C36.0168,48.7008 36.5838,48.5878 36.9488,48.4538 C36.9558,48.3148 36.9578,48.2238 36.9578,48.1848 C36.9598,47.7668 36.8748,47.4708 36.6948,47.2988 C36.4528,47.0648 36.0898,46.9458 35.6088,46.9408 C35.1598,46.9388 34.8268,47.0218 34.6088,47.1908 C34.3958,47.3538 34.2348,47.6538 34.1308,48.0818 L33.1958,47.9368 C33.2848,47.5088 33.4278,47.1638 33.6248,46.9038 C33.8218,46.6388 34.1038,46.4368 34.4728,46.2988 C34.8428,46.1578 35.2688,46.0888 35.7538,46.0938 C36.2348,46.0968 36.6248,46.1598 36.9258,46.2838 C37.2258,46.4098 37.4458,46.5658 37.5858,46.7518 C37.7248,46.9358 37.8218,47.1708 37.8758,47.4508 C37.9078,47.6268 37.9188,47.9418 37.9168,48.3988 L37.9058,49.7678 C37.8968,50.7228 37.9128,51.3288 37.9488,51.5828 C37.9898,51.8358 38.0688,52.0768 38.1868,52.3098 L37.1888,52.3028 C37.0918,52.0888 37.0308,51.8388 37.0028,51.5538 Z" id="Fill-31" fill="#FEFEFE"></path>
                        <polygon id="Fill-33" fill="#FEFEFE" points="40.4141 52.3291 40.4821 43.9621 41.4371 43.9711 41.3681 52.3371"></polygon>
                        <path d="M44.5679,49.333 C44.5609,50.108 44.7149,50.692 45.0259,51.082 C45.3379,51.469 45.7329,51.665 46.2109,51.669 C46.6859,51.674 47.0799,51.481 47.3999,51.096 C47.7169,50.71 47.8779,50.121 47.8849,49.325 C47.8919,48.575 47.7369,48.009 47.4219,47.621 C47.1089,47.23 46.7189,47.032 46.2479,47.029 C45.7709,47.024 45.3729,47.214 45.0549,47.596 C44.7379,47.977 44.5749,48.558 44.5679,49.333 M43.5859,49.323 C43.5949,48.202 43.8919,47.372 44.4769,46.837 C44.9669,46.392 45.5589,46.173 46.2549,46.179 C47.0299,46.186 47.6609,46.465 48.1479,47.017 C48.6349,47.564 48.8759,48.319 48.8689,49.281 C48.8619,50.062 48.7469,50.676 48.5239,51.123 C48.3039,51.565 47.9849,51.909 47.5649,52.153 C47.1499,52.397 46.6939,52.518 46.2029,52.513 C45.4139,52.506 44.7779,52.228 44.2939,51.682 C43.8149,51.133 43.5769,50.349 43.5859,49.323" id="Fill-35" fill="#FEFEFE"></path>
                        <path d="M51.0298,52.415 L51.0798,46.355 L51.9408,46.362 L51.9318,47.223 C52.3518,46.561 52.9528,46.233 53.7348,46.24 C54.0748,46.243 54.3858,46.311 54.6668,46.447 C54.9528,46.579 55.1658,46.752 55.3058,46.967 C55.4438,47.181 55.5418,47.435 55.5968,47.728 C55.6298,47.918 55.6438,48.251 55.6418,48.727 L55.6098,52.454 L54.6548,52.444 L54.6848,48.759 C54.6888,48.34 54.6548,48.029 54.5828,47.821 C54.5098,47.611 54.3768,47.445 54.1878,47.321 C54.0018,47.195 53.7798,47.131 53.5258,47.129 C53.1178,47.125 52.7668,47.262 52.4648,47.536 C52.1698,47.811 52.0188,48.337 52.0138,49.114 L51.9868,52.423 L51.0298,52.415" id="Fill-37" fill="#FEFEFE"></path>
                    </g>
                    <g id="Group-42" transform="translate(70.000000, 12.384000)">
                        <mask id="mask-6" fill="white">
                            <use xlink:href="#path-5"></use>
                        </mask>
                        <g id="Clip-41"></g>
                        <path d="M7.834,11.747 L0.931,0.06 L7.834,11.747 Z" id="Fill-40" mask="url(#mask-6)"></path>
                    </g>
                    <g id="Group-45" transform="translate(77.000000, 12.384000)">
                        <mask id="mask-8" fill="white">
                            <use xlink:href="#path-7"></use>
                        </mask>
                        <g id="Clip-44"></g>
                        <path d="M3.083,5.381 L0.125,0.373 L3.083,5.381 Z" id="Fill-43" mask="url(#mask-8)"></path>
                    </g>
                    <g id="Group-48" transform="translate(65.000000, 14.384000)">
                        <mask id="mask-10" fill="white">
                            <use xlink:href="#path-9"></use>
                        </mask>
                        <g id="Clip-47"></g>
                        <path d="M8.727,14.27 L0.517,0.369 L8.727,14.27 Z" id="Fill-46" mask="url(#mask-10)"></path>
                    </g>
                    <g id="Group-51" transform="translate(61.000000, 17.384000)">
                        <mask id="mask-12" fill="white">
                            <use xlink:href="#path-11"></use>
                        </mask>
                        <g id="Clip-50"></g>
                        <path d="M8.486,14.046 L0.495,0.516 L8.486,14.046 Z" id="Fill-49" mask="url(#mask-12)"></path>
                    </g>
                    <g id="Group-54" transform="translate(57.000000, 22.384000)">
                        <mask id="mask-14" fill="white">
                            <use xlink:href="#path-13"></use>
                        </mask>
                        <g id="Clip-53"></g>
                        <path d="M7.238,10.711 L0.99,0.131 L7.238,10.711 Z" id="Fill-52" mask="url(#mask-14)"></path>
                    </g>
                    <g id="Group-57" transform="translate(59.000000, 12.384000)">
                        <mask id="mask-16" fill="white">
                            <use xlink:href="#path-15"></use>
                        </mask>
                        <g id="Clip-56"></g>
                        <path d="M0.017,19.858 L11.117,0.278 L0.017,19.858 Z" id="Fill-55" mask="url(#mask-16)"></path>
                    </g>
                    <g id="Group-60" transform="translate(65.000000, 12.384000)">
                        <mask id="mask-18" fill="white">
                            <use xlink:href="#path-17"></use>
                        </mask>
                        <g id="Clip-59"></g>
                        <path d="M0.035,20.586 L11.615,0.159 L0.035,20.586 Z" id="Fill-58" mask="url(#mask-18)"></path>
                    </g>
                    <g id="Group-63" transform="translate(73.000000, 16.384000)">
                        <mask id="mask-20" fill="white">
                            <use xlink:href="#path-19"></use>
                        </mask>
                        <g id="Clip-62"></g>
                        <path d="M0.381,12.552 L7.06,0.769 L0.381,12.552 Z" id="Fill-61" mask="url(#mask-20)"></path>
                    </g>
                    <g id="Group-66" transform="translate(71.000000, 11.384000)">
                        <mask id="mask-22" fill="white">
                            <use xlink:href="#path-21"></use>
                        </mask>
                        <g id="Clip-65"></g>
                        <path d="M0.863,0.87 L4.587,0.87 L0.863,0.87 Z" id="Fill-64" mask="url(#mask-22)"></path>
                    </g>
                    <g id="Group-69" transform="translate(62.000000, 16.384000)">
                        <mask id="mask-24" fill="white">
                            <use xlink:href="#path-23"></use>
                        </mask>
                        <g id="Clip-68"></g>
                        <path d="M0.15,0.897 L18.069,0.897 L0.15,0.897 Z" id="Fill-67" mask="url(#mask-24)"></path>
                    </g>
                    <g id="Group-72" transform="translate(57.000000, 22.384000)">
                        <mask id="mask-26" fill="white">
                            <use xlink:href="#path-25"></use>
                        </mask>
                        <g id="Clip-71"></g>
                        <path d="M0.799,0.501 L21.584,0.501 L0.799,0.501 Z" id="Fill-70" mask="url(#mask-26)"></path>
                    </g>
                    <g id="Group-75" transform="translate(56.000000, 27.384000)">
                        <mask id="mask-28" fill="white">
                            <use xlink:href="#path-27"></use>
                        </mask>
                        <g id="Clip-74"></g>
                        <path d="M0.579,0.677 L18.415,0.677 L0.579,0.677 Z" id="Fill-73" mask="url(#mask-28)"></path>
                    </g>
                    <g id="Group-112" transform="translate(56.000000, 11.384000)">
                        <g id="Group-78">
                            <mask id="mask-30" fill="white">
                                <use xlink:href="#path-29"></use>
                            </mask>
                            <g id="Clip-77"></g>
                            <path d="M11.0679,-5.4805 L28.6099,24.2185" id="Stroke-76" stroke="#FEFEFE" stroke-width="0.5" mask="url(#mask-30)"></path>
                        </g>
                        <g id="Group-81">
                            <mask id="mask-32" fill="white">
                                <use xlink:href="#path-31"></use>
                            </mask>
                            <g id="Clip-80"></g>
                            <path d="M15.8311,-7.5879 L33.3731,22.1081" id="Stroke-79" stroke="#FEFEFE" stroke-width="0.5" mask="url(#mask-32)"></path>
                        </g>
                        <g id="Group-84">
                            <mask id="mask-34" fill="white">
                                <use xlink:href="#path-33"></use>
                            </mask>
                            <g id="Clip-83"></g>
                            <path d="M5.6841,-3.1231 L23.2231,26.5749" id="Stroke-82" stroke="#FEFEFE" stroke-width="0.5" mask="url(#mask-34)"></path>
                        </g>
                        <g id="Group-87">
                            <mask id="mask-36" fill="white">
                                <use xlink:href="#path-35"></use>
                            </mask>
                            <g id="Clip-86"></g>
                            <path d="M0.5479,-1.8594 L18.0909,27.8406" id="Stroke-85" stroke="#FEFEFE" stroke-width="0.5" mask="url(#mask-36)"></path>
                        </g>
                        <g id="Group-90">
                            <mask id="mask-38" fill="white">
                                <use xlink:href="#path-37"></use>
                            </mask>
                            <g id="Clip-89"></g>
                            <path d="M-3.645,1.5908 L13.896,31.2888" id="Stroke-88" stroke="#FEFEFE" stroke-width="0.5" mask="url(#mask-38)"></path>
                        </g>
                        <g id="Group-93">
                            <mask id="mask-40" fill="white">
                                <use xlink:href="#path-39"></use>
                            </mask>
                            <g id="Clip-92"></g>
                            <path d="M17.5679,-4.8096 L2.3349,22.0594" id="Stroke-91" stroke="#FEFEFE" stroke-width="0.5" mask="url(#mask-40)"></path>
                        </g>
                        <g id="Group-96">
                            <mask id="mask-42" fill="white">
                                <use xlink:href="#path-41"></use>
                            </mask>
                            <g id="Clip-95"></g>
                            <path d="M20.8066,0.8203 L5.5736,27.6913" id="Stroke-94" stroke="#FEFEFE" stroke-width="0.5" mask="url(#mask-42)"></path>
                        </g>
                        <g id="Group-99">
                            <mask id="mask-44" fill="white">
                                <use xlink:href="#path-43"></use>
                            </mask>
                            <g id="Clip-98"></g>
                            <path d="M26.9346,0.6992 L11.7016,27.5682" id="Stroke-97" stroke="#FEFEFE" stroke-width="0.5" mask="url(#mask-44)"></path>
                        </g>
                        <g id="Group-102">
                            <mask id="mask-46" fill="white">
                                <use xlink:href="#path-45"></use>
                            </mask>
                            <g id="Clip-101"></g>
                            <path d="M28.7813,0.8701 L2.0363,0.8701" id="Stroke-100" stroke="#FEFEFE" stroke-width="0.5" mask="url(#mask-46)"></path>
                        </g>
                        <g id="Group-105">
                            <mask id="mask-48" fill="white">
                                <use xlink:href="#path-47"></use>
                            </mask>
                            <g id="Clip-104"></g>
                            <path d="M29.9482,5.8964 L-1.5228,5.8964" id="Stroke-103" stroke="#FEFEFE" stroke-width="0.5" mask="url(#mask-48)"></path>
                        </g>
                        <g id="Group-108">
                            <mask id="mask-50" fill="white">
                                <use xlink:href="#path-49"></use>
                            </mask>
                            <g id="Clip-107"></g>
                            <path d="M28.8994,11.5009 L-2.5696,11.5009" id="Stroke-106" stroke="#FEFEFE" stroke-width="0.5" mask="url(#mask-50)"></path>
                        </g>
                        <g id="Group-111">
                            <mask id="mask-52" fill="white">
                                <use xlink:href="#path-51"></use>
                            </mask>
                            <g id="Clip-110"></g>
                            <path d="M31.0146,16.6767 L-2.4984,16.6767 M31.0596,22.0967 L-2.4524,22.0967" id="Stroke-109" stroke="#FEFEFE" stroke-width="0.5" mask="url(#mask-52)"></path>
                        </g>
                    </g>
                </g>
            </g>
        </g>
    </g>
</svg>