
<svg width="18px" height="18px" viewBox="0 0 18 18" version="1.1" xmlns="http://www.w3.org/2000/svg" xmlns:xlink="http://www.w3.org/1999/xlink">
    <!-- Generator: Sketch 50.2 (55047) - http://www.bohemiancoding.com/sketch -->
    <desc>Created with Sketch.</desc>
    <defs></defs>
    <g id="Welcome" stroke="none" stroke-width="1" fill="none" fill-rule="evenodd">
        <g id="Desktop-HD" transform="translate(-250.000000, -1005.000000)" fill="#C7C5DC" fill-rule="nonzero">
            <g id="promotions" transform="translate(247.000000, 910.000000)">
                <g id="calendar" transform="translate(3.000000, 95.000000)">
                    <g>
                        <path d="M16.0049062,2 L15.9999844,2 L15.9999844,4.00001758 L13.9999687,4.00001758 L13.9999687,2 L7.99996875,2 L7.99996875,4.00001758 L6,4.00001758 L6,2 L1.99509375,2 C0.892640625,2 0,2.8963915 0,4.00212696 L0,15.997873 C0,17.1054835 0.89325,18 1.99509375,18 L16.0049062,18 C17.1073594,18 18,17.1036085 18,15.997873 L18,4.00212696 C18,2.8945165 17.10675,2 16.0049062,2 Z M2.00001562,15.997873 C1.999875,7.99944336 1.9996875,4.0001582 1.9993125,3.9999707 C11.3331094,4.00062695 16.0000313,4.00133008 16.0000313,4.00208008 C16.000125,12.0005098 16.0003594,15.9997949 16.0007344,15.9999824 C6.66689063,15.999373 2.00001562,15.998623 2.00001562,15.997873 Z" id="Shape"></path>
                        <rect id="Rectangle-path" x="4" y="12" width="2" height="2"></rect>
                        <rect id="Rectangle-path" x="8" y="12" width="2" height="2"></rect>
                        <rect id="Rectangle-path" x="8" y="8" width="2" height="2"></rect>
                        <rect id="Rectangle-path" x="4" y="8" width="2" height="2"></rect>
                        <rect id="Rectangle-path" x="12" y="8" width="2" height="2"></rect>
                        <rect id="Rectangle-path" x="4" y="0" width="2" height="5"></rect>
                        <rect id="Rectangle-path" x="12" y="0" width="2" height="5"></rect>
                    </g>
                </g>
            </g>
        </g>
    </g>
</svg>