
<svg width="7px" height="15px" viewBox="0 0 7 15" version="1.1" xmlns="http://www.w3.org/2000/svg" xmlns:xlink="http://www.w3.org/1999/xlink">
    <!-- Generator: Sketch 50.2 (55047) - http://www.bohemiancoding.com/sketch -->
    <desc>Created with Sketch.</desc>
    <defs></defs>
    <g id="Welcome" stroke="none" stroke-width="1" fill="none" fill-rule="evenodd">
        <g id="Tablet-Portrait" transform="translate(-86.000000, -2825.000000)" fill="#616386" fill-rule="nonzero">
            <g id="follow-us" transform="translate(63.000000, 2492.000000)">
                <g id="facebook" transform="translate(2.000000, 316.000000)">
                    <path d="M22.513013,19.9050224 C22.513013,20.2830286 22.513013,21.9702287 22.513013,21.9702287 L21,21.9702287 L21,24.4955709 L22.513013,24.4955709 L22.513013,32 L25.621063,32 L25.621063,24.4957802 L27.7067088,24.4957802 C27.7067088,24.4957802 27.9020386,23.2848979 27.9967218,21.9609172 C27.7252618,21.9609172 25.6328155,21.9609172 25.6328155,21.9609172 C25.6328155,21.9609172 25.6328155,20.4917533 25.6328155,20.234239 C25.6328155,19.9761667 25.9716872,19.6290245 26.3066181,19.6290245 C26.6409213,19.6290245 27.3464942,19.6290245 28,19.6290245 C28,19.2851955 28,18.097191 28,17 C27.1275894,17 26.1350724,17 25.6975767,17 C22.4361854,16.9998256 22.513013,19.5276788 22.513013,19.9050224 Z" id="fb"></path>
                </g>
            </g>
        </g>
    </g>
</svg>