
<svg width="20px" height="13px" viewBox="0 0 20 13" version="1.1" xmlns="http://www.w3.org/2000/svg" xmlns:xlink="http://www.w3.org/1999/xlink">
    <!-- Generator: Sketch 50.2 (55047) - http://www.bohemiancoding.com/sketch -->
    <desc>Created with Sketch.</desc>
    <defs></defs>
    <g id="Welcome" stroke="none" stroke-width="1" fill="none" fill-rule="evenodd">
        <g id="Tablet-Portrait" transform="translate(-276.000000, -2826.000000)" fill="#616386" fill-rule="nonzero">
            <g id="follow-us" transform="translate(63.000000, 2492.000000)">
                <g id="google-plus" transform="translate(197.000000, 316.000000)">
                    <path d="M23.0200324,25.7685913 L26.1460598,25.7685913 C25.5973436,27.3293503 24.1112209,28.4483701 22.371371,28.4354553 C20.2602961,28.419773 18.5147263,26.720729 18.4327704,24.5983955 C18.3449199,22.3234125 20.1590847,20.4444398 22.401193,20.4444398 C23.4263627,20.4444398 24.3618917,20.8374189 25.0671843,21.4813583 C25.2342399,21.6339199 25.4885348,21.6348864 25.6528396,21.4792937 L26.8010087,20.3921216 C26.980552,20.2220766 26.9812069,19.9349198 26.8021876,19.7643038 C25.6836659,18.6982172 24.1832216,18.0337195 22.5286024,18.0012129 C18.9994758,17.9318946 16.0247417,20.8429538 16.0001592,24.3940868 C15.9753585,27.9718839 18.8507151,30.88 22.401193,30.88 C25.8156162,30.88 28.6049126,28.1903375 28.7917476,24.8022211 C28.7967253,24.7597428 28.8,23.3241345 28.8,23.3241345 L23.0200324,23.3241345 C22.7831156,23.3241345 22.5910845,23.5173294 22.5910845,23.7556823 L22.5910845,25.3370435 C22.5910845,25.5753964 22.7831592,25.7685913 23.0200324,25.7685913 Z" id="Shape"></path>
                    <path d="M34.0973697,23.4486938 L34.0973697,21.8992455 C34.0973697,21.6897772 33.9298867,21.52 33.7232491,21.52 L32.4367509,21.52 C32.2301133,21.52 32.0626303,21.6897772 32.0626303,21.8992455 L32.0626303,23.4486938 L30.5341205,23.4486938 C30.3274829,23.4486938 30.16,23.618471 30.16,23.8279392 L30.16,25.1320608 C30.16,25.341529 30.3274829,25.5113062 30.5341205,25.5113062 L32.0626303,25.5113062 L32.0626303,27.0607545 C32.0626303,27.2702228 32.2301133,27.44 32.4367509,27.44 L33.7232491,27.44 C33.9298867,27.44 34.0973697,27.2702228 34.0973697,27.0607545 L34.0973697,25.5113062 L35.6258795,25.5113062 C35.8325171,25.5113062 36,25.341529 36,25.1320608 L36,23.8279392 C36,23.618471 35.8325171,23.4486938 35.6258795,23.4486938 L34.0973697,23.4486938 Z" id="Shape"></path>
                </g>
            </g>
        </g>
    </g>
</svg>