
<svg width="52px" height="52px" viewBox="0 0 52 52" version="1.1" xmlns="http://www.w3.org/2000/svg" xmlns:xlink="http://www.w3.org/1999/xlink">
    <!-- Generator: Sketch 51.3 (57544) - http://www.bohemiancoding.com/sketch -->
    <desc>Created with Sketch.</desc>
    <defs></defs>
    <g id="Welcome" stroke="none" stroke-width="1" fill="none" fill-rule="evenodd">
        <g id="homepage_desktop" transform="translate(-662.000000, -4147.000000)">
            <g id="footer" transform="translate(0.000000, 4048.000000)">
                <g id="social" transform="translate(598.000000, 100.000000)">
                    <g id="instagram" transform="translate(65.000000, 0.000000)">
                        <circle id="Oval" stroke="#C7C5DC" opacity="0.2" cx="25" cy="25" r="25"></circle>
                        <path d="M28.5844838,17 L21.4153269,17 C18.9807171,17 17,18.9808118 17,21.4154216 L17,28.5845784 C17,31.0192829 18.9807171,33 21.4153269,33 L28.5844838,33 C31.0192829,33 33,31.0191882 33,28.5845784 L33,21.4154216 C33.0000946,18.9808118 31.0192829,17 28.5844838,17 Z M31.5804971,28.5845784 C31.5804971,30.2365168 30.2365168,31.5804025 28.5845784,31.5804025 L21.4153269,31.5804025 C19.7634832,31.5804971 18.4195975,30.2365168 18.4195975,28.5845784 L18.4195975,21.4154216 C18.4195975,19.7635779 19.7634832,18.4195975 21.4153269,18.4195975 L28.5844838,18.4195975 C30.2364221,18.4195975 31.5804025,19.7635779 31.5804025,21.4154216 L31.5804025,28.5845784 L31.5804971,28.5845784 Z" id="Shape" fill="#C7C5DC" fill-rule="nonzero" opacity="0.7"></path>
                        <path d="M25,21 C22.7943668,21 21,22.794408 21,25.0000918 C21,27.2056839 22.7943668,29 25,29 C27.2056332,29 29,27.2056839 29,25.0000918 C29,22.794408 27.2056332,21 25,21 Z M25,27.6225609 C23.5539104,27.6225609 22.3773156,26.4461228 22.3773156,25 C22.3773156,23.5537854 23.5538186,22.3772554 25,22.3772554 C26.4461814,22.3772554 27.6226844,23.5537854 27.6226844,25 C27.6226844,26.4461228 26.4460896,27.6225609 25,27.6225609 Z" id="Shape" fill="#C7C5DC" fill-rule="nonzero" opacity="0.7"></path>
                        <path d="M29,20 C28.7372727,20 28.4791818,20.1063636 28.2936364,20.2927273 C28.1071818,20.4781818 28,20.7363636 28,21 C28,21.2628182 28.1072727,21.5209091 28.2936364,21.7072727 C28.4790909,21.8927273 28.7372727,22 29,22 C29.2636364,22 29.5209091,21.8927273 29.7072727,21.7072727 C29.8936364,21.5209091 30,21.2627273 30,21 C30,20.7363636 29.8936364,20.4781818 29.7072727,20.2927273 C29.5218182,20.1063636 29.2636364,20 29,20 Z" id="Shape" fill="#C7C5DC" fill-rule="nonzero" opacity="0.7"></path>
                    </g>
                </g>
            </g>
        </g>
    </g>
</svg>