
<svg width="52px" height="52px" viewBox="0 0 52 52" version="1.1" xmlns="http://www.w3.org/2000/svg" xmlns:xlink="http://www.w3.org/1999/xlink">
    <!-- Generator: Sketch 51.3 (57544) - http://www.bohemiancoding.com/sketch -->
    <desc>Created with Sketch.</desc>
    <defs></defs>
    <g id="Welcome" stroke="none" stroke-width="1" fill="none" fill-rule="evenodd">
        <g id="homepage_desktop" transform="translate(-727.000000, -4147.000000)">
            <g id="footer" transform="translate(0.000000, 4048.000000)">
                <g id="social" transform="translate(598.000000, 100.000000)">
                    <g id="snapchat" transform="translate(130.000000, 0.000000)">
                        <circle id="Oval" stroke="#C7C5DC" opacity="0.2" cx="25" cy="25" r="25"></circle>
                        <path d="M31.6614775,28.2458417 C29.7712731,27.9121436 28.9100598,25.8642612 28.8180705,25.6318055 C28.8163127,25.6272549 28.8090766,25.6109042 28.8070845,25.6061026 C28.7123414,25.3998833 28.688846,25.2325164 28.7383269,25.1090547 C28.8375816,24.8575807 29.2580665,24.7151008 29.5272963,24.6238069 C29.6030557,24.5975705 29.6740398,24.5734682 29.7305517,24.5493658 C30.2750463,24.3190442 30.5482897,24.0247321 30.5425184,23.6739301 C30.5372744,23.3956863 30.3335211,23.1401952 30.0317727,23.0258347 C29.9277721,22.9792306 29.8040259,22.9538101 29.6835317,22.9538101 C29.6002726,22.9538101 29.4765264,22.9663948 29.3582879,23.0255836 C29.1277874,23.1410112 28.9228035,23.20315 28.7677986,23.2103682 C28.6988067,23.2074182 28.6465427,23.1951159 28.6088095,23.1814328 C28.6135554,23.0938736 28.6190631,23.0038664 28.624307,22.9120076 L28.6270609,22.8651525 C28.6913069,21.7727957 28.7710505,20.413399 28.4315689,19.5987526 C27.4275965,17.1874521 25.2969308,17 24.667683,17 L24.3741961,17.00295 C23.7462079,17.00295 21.6195265,17.1901511 20.6165502,19.6001021 C20.2763069,20.4166314 20.3568122,21.7754633 20.4213219,22.867569 C20.4275619,22.9749624 20.4338313,23.079657 20.4393096,23.1817153 C20.3963031,23.1975011 20.3343129,23.2114352 20.2500577,23.2114352 C20.0695653,23.2114352 19.8533319,23.1487629 19.6075681,23.0255836 C19.2523253,22.8472326 18.6028633,23.085557 18.5150926,23.5794038 C18.4673402,23.8466635 18.5678546,24.2320498 19.3173038,24.5493972 C19.3755441,24.5740331 19.4488133,24.5992024 19.5388105,24.6297383 C19.7900526,24.7151635 20.2105375,24.8578946 20.3100266,25.108835 C20.3592731,25.2328302 20.3357777,25.4001971 20.2320407,25.6270352 C20.1950399,25.7194275 19.3048237,27.8905206 17.3386255,28.2373055 C17.1346378,28.2731765 16.9891248,28.4670936 17.0006381,28.6877492 C17.0038899,28.7490721 17.0171317,28.8106774 17.0416231,28.8728162 C17.2068816,29.2868554 17.8361002,29.5742005 19.020565,29.7755868 C19.0465505,29.8476113 19.0768132,29.9954578 19.0940686,30.0811654 C19.119058,30.2035601 19.1453072,30.3299405 19.1810776,30.4609027 C19.2170823,30.5934656 19.3240711,30.8157531 19.6335536,30.8157531 C19.7382867,30.8157531 19.8595426,30.7903013 19.9912865,30.7629979 C20.1807728,30.7231098 20.4397783,30.6690051 20.7610085,30.6690051 C20.9392451,30.6690051 21.1247471,30.6861403 21.3125049,30.7193438 C21.6667516,30.7822672 21.9774938,31.017673 22.3379806,31.2905817 C22.8687061,31.6925697 23.3512106,32 24.3161608,32 C24.3416483,32 24.3669014,31.999184 24.3916565,31.9973324 C24.4273975,31.9992154 24.4634023,32 24.499905,32 C25.3451227,32 26.0890935,31.7608596 26.711574,31.2897971 C27.0555671,31.0289709 27.3805472,30.782581 27.7350283,30.7193752 C27.9232841,30.6861717 28.1090205,30.6690365 28.2872571,30.6690365 C28.5952454,30.6690365 28.8409799,30.7113411 29.0602309,30.7574117 C29.2084684,30.7887322 29.3244804,30.8037334 29.4314692,30.8037334 C29.6474683,30.8037334 29.8064575,30.676537 29.8672173,30.454532 C29.902226,30.3254527 29.9284752,30.2028069 29.9539626,30.0774622 C29.9674681,30.0107728 29.9999573,29.8511576 30.0274662,29.7743 C31.1949394,29.5753303 31.7911707,29.2992204 31.9561655,28.8862483 C31.9809206,28.8268084 31.9954221,28.7638536 31.9994064,28.6969131 C32.0104802,28.4761634 31.8654652,28.2822777 31.6614775,28.2458417 Z" id="Shape" fill="#C7C5DC" fill-rule="nonzero" opacity="0.7"></path>
                    </g>
                </g>
            </g>
        </g>
    </g>
</svg>